<mxfile host="app.diagrams.net" modified="2023-10-05T12:31:47.690Z" agent="Mozilla/5.0 (Windows NT 10.0; Win64; x64) AppleWebKit/537.36 (KHTML, like Gecko) Chrome/116.0.0.0 Safari/537.36 OPR/102.0.0.0" etag="3Dpn8eCRaxeqsZ3TlJkv" version="21.8.2" type="device">
  <diagram name="Page-1" id="RKBlEXqTn5jJfGL7q3--">
    <mxGraphModel dx="857" dy="455" grid="1" gridSize="10" guides="1" tooltips="1" connect="1" arrows="1" fold="1" page="1" pageScale="1" pageWidth="827" pageHeight="1169" math="0" shadow="0">
      <root>
        <mxCell id="0" />
        <mxCell id="1" parent="0" />
        <mxCell id="2eMa4MTnB2cK6f5te78B-8" style="rounded=0;orthogonalLoop=1;jettySize=auto;html=1;exitX=0.5;exitY=0.5;exitDx=0;exitDy=0;exitPerimeter=0;entryX=0;entryY=0.5;entryDx=0;entryDy=0;endArrow=none;endFill=0;" parent="1" source="2eMa4MTnB2cK6f5te78B-1" target="2eMa4MTnB2cK6f5te78B-5" edge="1">
          <mxGeometry relative="1" as="geometry" />
        </mxCell>
        <mxCell id="2eMa4MTnB2cK6f5te78B-9" style="rounded=0;orthogonalLoop=1;jettySize=auto;html=1;exitX=0.5;exitY=0.5;exitDx=0;exitDy=0;exitPerimeter=0;entryX=0;entryY=0.5;entryDx=0;entryDy=0;endArrow=none;endFill=0;" parent="1" source="2eMa4MTnB2cK6f5te78B-1" target="2eMa4MTnB2cK6f5te78B-6" edge="1">
          <mxGeometry relative="1" as="geometry" />
        </mxCell>
        <mxCell id="2eMa4MTnB2cK6f5te78B-13" style="rounded=0;orthogonalLoop=1;jettySize=auto;html=1;exitX=0.5;exitY=0.5;exitDx=0;exitDy=0;exitPerimeter=0;entryX=0;entryY=0.5;entryDx=0;entryDy=0;endArrow=none;endFill=0;" parent="1" source="2eMa4MTnB2cK6f5te78B-1" target="2eMa4MTnB2cK6f5te78B-12" edge="1">
          <mxGeometry relative="1" as="geometry" />
        </mxCell>
        <mxCell id="2eMa4MTnB2cK6f5te78B-1" value="Клиент" style="shape=umlActor;verticalLabelPosition=bottom;verticalAlign=top;html=1;outlineConnect=0;" parent="1" vertex="1">
          <mxGeometry x="50" y="120" width="30" height="60" as="geometry" />
        </mxCell>
        <mxCell id="2eMa4MTnB2cK6f5te78B-15" style="rounded=0;orthogonalLoop=1;jettySize=auto;html=1;exitX=0.5;exitY=0.5;exitDx=0;exitDy=0;exitPerimeter=0;entryX=0;entryY=0.5;entryDx=0;entryDy=0;endArrow=none;endFill=0;" parent="1" source="2eMa4MTnB2cK6f5te78B-2" target="2eMa4MTnB2cK6f5te78B-10" edge="1">
          <mxGeometry relative="1" as="geometry" />
        </mxCell>
        <mxCell id="2eMa4MTnB2cK6f5te78B-16" style="rounded=0;orthogonalLoop=1;jettySize=auto;html=1;exitX=0.5;exitY=0.5;exitDx=0;exitDy=0;exitPerimeter=0;entryX=0;entryY=0.5;entryDx=0;entryDy=0;endArrow=none;endFill=0;" parent="1" source="2eMa4MTnB2cK6f5te78B-2" target="2eMa4MTnB2cK6f5te78B-11" edge="1">
          <mxGeometry relative="1" as="geometry" />
        </mxCell>
        <mxCell id="2eMa4MTnB2cK6f5te78B-17" style="rounded=0;orthogonalLoop=1;jettySize=auto;html=1;exitX=0.5;exitY=0.5;exitDx=0;exitDy=0;exitPerimeter=0;entryX=0;entryY=0.5;entryDx=0;entryDy=0;endArrow=none;endFill=0;" parent="1" source="2eMa4MTnB2cK6f5te78B-2" target="2eMa4MTnB2cK6f5te78B-14" edge="1">
          <mxGeometry relative="1" as="geometry" />
        </mxCell>
        <mxCell id="2eMa4MTnB2cK6f5te78B-2" value="Сотрудник &lt;br&gt;тех.обслуживания" style="shape=umlActor;verticalLabelPosition=bottom;verticalAlign=top;html=1;outlineConnect=0;" parent="1" vertex="1">
          <mxGeometry x="40" y="375" width="30" height="60" as="geometry" />
        </mxCell>
        <mxCell id="2eMa4MTnB2cK6f5te78B-22" style="rounded=0;orthogonalLoop=1;jettySize=auto;html=1;exitX=0.5;exitY=0.5;exitDx=0;exitDy=0;exitPerimeter=0;entryX=0;entryY=0.5;entryDx=0;entryDy=0;endArrow=none;endFill=0;" parent="1" source="2eMa4MTnB2cK6f5te78B-3" target="2eMa4MTnB2cK6f5te78B-20" edge="1">
          <mxGeometry relative="1" as="geometry" />
        </mxCell>
        <mxCell id="2eMa4MTnB2cK6f5te78B-23" style="rounded=0;orthogonalLoop=1;jettySize=auto;html=1;exitX=0.5;exitY=0.5;exitDx=0;exitDy=0;exitPerimeter=0;entryX=0;entryY=0.5;entryDx=0;entryDy=0;endArrow=none;endFill=0;" parent="1" source="2eMa4MTnB2cK6f5te78B-3" target="2eMa4MTnB2cK6f5te78B-18" edge="1">
          <mxGeometry relative="1" as="geometry" />
        </mxCell>
        <mxCell id="2eMa4MTnB2cK6f5te78B-24" style="rounded=0;orthogonalLoop=1;jettySize=auto;html=1;exitX=0.5;exitY=0.5;exitDx=0;exitDy=0;exitPerimeter=0;entryX=0;entryY=0.5;entryDx=0;entryDy=0;endArrow=none;endFill=0;" parent="1" source="2eMa4MTnB2cK6f5te78B-3" target="2eMa4MTnB2cK6f5te78B-21" edge="1">
          <mxGeometry relative="1" as="geometry" />
        </mxCell>
        <mxCell id="2eMa4MTnB2cK6f5te78B-3" value="Администратор" style="shape=umlActor;verticalLabelPosition=bottom;verticalAlign=top;html=1;outlineConnect=0;" parent="1" vertex="1">
          <mxGeometry x="410" y="110" width="30" height="60" as="geometry" />
        </mxCell>
        <mxCell id="2eMa4MTnB2cK6f5te78B-26" style="rounded=0;orthogonalLoop=1;jettySize=auto;html=1;exitX=0.5;exitY=0.5;exitDx=0;exitDy=0;exitPerimeter=0;entryX=0;entryY=0.5;entryDx=0;entryDy=0;endArrow=none;endFill=0;" parent="1" source="2eMa4MTnB2cK6f5te78B-4" target="2eMa4MTnB2cK6f5te78B-25" edge="1">
          <mxGeometry relative="1" as="geometry" />
        </mxCell>
        <mxCell id="2eMa4MTnB2cK6f5te78B-4" value="Сотрудник отдела&lt;br&gt;клиентской поддержки" style="shape=umlActor;verticalLabelPosition=bottom;verticalAlign=top;html=1;outlineConnect=0;" parent="1" vertex="1">
          <mxGeometry x="414" y="370" width="30" height="60" as="geometry" />
        </mxCell>
        <mxCell id="2eMa4MTnB2cK6f5te78B-5" value="Бронирование автомобиля" style="ellipse;whiteSpace=wrap;html=1;" parent="1" vertex="1">
          <mxGeometry x="120" y="30" width="90" height="70" as="geometry" />
        </mxCell>
        <mxCell id="2eMa4MTnB2cK6f5te78B-6" value="Просмотр информации о доступных автомобилях" style="ellipse;whiteSpace=wrap;html=1;" parent="1" vertex="1">
          <mxGeometry x="110" y="110" width="110" height="80" as="geometry" />
        </mxCell>
        <mxCell id="2eMa4MTnB2cK6f5te78B-10" value="Управление данными о замене деталей и ремонтах" style="ellipse;whiteSpace=wrap;html=1;" parent="1" vertex="1">
          <mxGeometry x="110" y="295" width="140" height="70" as="geometry" />
        </mxCell>
        <mxCell id="2eMa4MTnB2cK6f5te78B-11" value="Планирование обслуживания" style="ellipse;whiteSpace=wrap;html=1;" parent="1" vertex="1">
          <mxGeometry x="120" y="370" width="100" height="70" as="geometry" />
        </mxCell>
        <mxCell id="2eMa4MTnB2cK6f5te78B-12" value="Оплата аренды" style="ellipse;whiteSpace=wrap;html=1;" parent="1" vertex="1">
          <mxGeometry x="120" y="203" width="90" height="70" as="geometry" />
        </mxCell>
        <mxCell id="2eMa4MTnB2cK6f5te78B-14" value="Покупка требуемых запчастей" style="ellipse;whiteSpace=wrap;html=1;" parent="1" vertex="1">
          <mxGeometry x="120" y="460" width="100" height="70" as="geometry" />
        </mxCell>
        <mxCell id="2eMa4MTnB2cK6f5te78B-18" value="Управление данными о клиентах и автомобилях" style="ellipse;whiteSpace=wrap;html=1;" parent="1" vertex="1">
          <mxGeometry x="490" y="10" width="100" height="80" as="geometry" />
        </mxCell>
        <mxCell id="2eMa4MTnB2cK6f5te78B-20" value="Организация бронирования" style="ellipse;whiteSpace=wrap;html=1;" parent="1" vertex="1">
          <mxGeometry x="490" y="100" width="100" height="80" as="geometry" />
        </mxCell>
        <mxCell id="2eMa4MTnB2cK6f5te78B-21" value="Отслеживание финансовых операций" style="ellipse;whiteSpace=wrap;html=1;" parent="1" vertex="1">
          <mxGeometry x="490" y="190" width="100" height="80" as="geometry" />
        </mxCell>
        <mxCell id="2eMa4MTnB2cK6f5te78B-25" value="Обработка запросов клиентов" style="ellipse;whiteSpace=wrap;html=1;" parent="1" vertex="1">
          <mxGeometry x="490" y="305" width="90" height="65" as="geometry" />
        </mxCell>
        <mxCell id="2eMa4MTnB2cK6f5te78B-29" style="rounded=0;orthogonalLoop=1;jettySize=auto;html=1;exitX=0.5;exitY=0.5;exitDx=0;exitDy=0;exitPerimeter=0;entryX=0;entryY=0.5;entryDx=0;entryDy=0;endArrow=none;endFill=0;" parent="1" source="2eMa4MTnB2cK6f5te78B-27" target="2eMa4MTnB2cK6f5te78B-28" edge="1">
          <mxGeometry relative="1" as="geometry" />
        </mxCell>
        <mxCell id="2eMa4MTnB2cK6f5te78B-27" value="Сотрудник отдела&lt;br&gt;безопасности и страхования" style="shape=umlActor;verticalLabelPosition=bottom;verticalAlign=top;html=1;outlineConnect=0;" parent="1" vertex="1">
          <mxGeometry x="414" y="530" width="30" height="60" as="geometry" />
        </mxCell>
        <mxCell id="2eMa4MTnB2cK6f5te78B-28" value="Учет страховых событий и аварий" style="ellipse;whiteSpace=wrap;html=1;" parent="1" vertex="1">
          <mxGeometry x="540" y="470" width="110" height="80" as="geometry" />
        </mxCell>
        <mxCell id="2eMa4MTnB2cK6f5te78B-39" style="rounded=0;orthogonalLoop=1;jettySize=auto;html=1;exitX=0.5;exitY=0.5;exitDx=0;exitDy=0;exitPerimeter=0;entryX=0;entryY=0.5;entryDx=0;entryDy=0;endArrow=none;endFill=0;" parent="1" source="2eMa4MTnB2cK6f5te78B-31" target="2eMa4MTnB2cK6f5te78B-38" edge="1">
          <mxGeometry relative="1" as="geometry" />
        </mxCell>
        <mxCell id="2eMa4MTnB2cK6f5te78B-31" value="IT-специалист" style="shape=umlActor;verticalLabelPosition=bottom;verticalAlign=top;html=1;outlineConnect=0;" parent="1" vertex="1">
          <mxGeometry x="50" y="585" width="30" height="60" as="geometry" />
        </mxCell>
        <mxCell id="2eMa4MTnB2cK6f5te78B-43" style="rounded=0;orthogonalLoop=1;jettySize=auto;html=1;exitX=0.5;exitY=0.5;exitDx=0;exitDy=0;exitPerimeter=0;entryX=0;entryY=0.5;entryDx=0;entryDy=0;endArrow=none;endFill=0;" parent="1" source="2eMa4MTnB2cK6f5te78B-32" target="2eMa4MTnB2cK6f5te78B-41" edge="1">
          <mxGeometry relative="1" as="geometry" />
        </mxCell>
        <mxCell id="2eMa4MTnB2cK6f5te78B-32" value="Партнеры и &lt;br&gt;поставщики&lt;br&gt;автомобилей" style="shape=umlActor;verticalLabelPosition=bottom;verticalAlign=top;html=1;outlineConnect=0;" parent="1" vertex="1">
          <mxGeometry x="414" y="718" width="30" height="60" as="geometry" />
        </mxCell>
        <mxCell id="2eMa4MTnB2cK6f5te78B-45" style="rounded=0;orthogonalLoop=1;jettySize=auto;html=1;exitX=0.5;exitY=0.5;exitDx=0;exitDy=0;exitPerimeter=0;entryX=0;entryY=0.5;entryDx=0;entryDy=0;endArrow=none;endFill=0;" parent="1" source="2eMa4MTnB2cK6f5te78B-33" target="2eMa4MTnB2cK6f5te78B-44" edge="1">
          <mxGeometry relative="1" as="geometry" />
        </mxCell>
        <mxCell id="2eMa4MTnB2cK6f5te78B-33" value="Аналитик" style="shape=umlActor;verticalLabelPosition=bottom;verticalAlign=top;html=1;outlineConnect=0;" parent="1" vertex="1">
          <mxGeometry x="50" y="718" width="30" height="60" as="geometry" />
        </mxCell>
        <mxCell id="2eMa4MTnB2cK6f5te78B-49" style="rounded=0;orthogonalLoop=1;jettySize=auto;html=1;exitX=0.5;exitY=0.5;exitDx=0;exitDy=0;exitPerimeter=0;entryX=0;entryY=0.5;entryDx=0;entryDy=0;endArrow=none;endFill=0;" parent="1" source="2eMa4MTnB2cK6f5te78B-34" target="2eMa4MTnB2cK6f5te78B-48" edge="1">
          <mxGeometry relative="1" as="geometry" />
        </mxCell>
        <mxCell id="2eMa4MTnB2cK6f5te78B-34" value="Сотрудник отдела &lt;br&gt;финансов и бухгалтерии" style="shape=umlActor;verticalLabelPosition=bottom;verticalAlign=top;html=1;outlineConnect=0;" parent="1" vertex="1">
          <mxGeometry x="430" y="860" width="30" height="60" as="geometry" />
        </mxCell>
        <mxCell id="2eMa4MTnB2cK6f5te78B-38" value="Обеспечение функционирования и безопасности информационных систем" style="ellipse;whiteSpace=wrap;html=1;" parent="1" vertex="1">
          <mxGeometry x="110" y="568.13" width="170" height="93.75" as="geometry" />
        </mxCell>
        <mxCell id="2eMa4MTnB2cK6f5te78B-41" value="Учет соглашений и контрактов" style="ellipse;whiteSpace=wrap;html=1;" parent="1" vertex="1">
          <mxGeometry x="510" y="708" width="110" height="70" as="geometry" />
        </mxCell>
        <mxCell id="2eMa4MTnB2cK6f5te78B-44" value="Создание отчетов и анализ данных о бизнесе&amp;nbsp;" style="ellipse;whiteSpace=wrap;html=1;" parent="1" vertex="1">
          <mxGeometry x="130" y="698" width="120" height="80" as="geometry" />
        </mxCell>
        <mxCell id="2eMa4MTnB2cK6f5te78B-48" value="Управление финансовыми операциями и бюджетированием" style="ellipse;whiteSpace=wrap;html=1;" parent="1" vertex="1">
          <mxGeometry x="510" y="847.5" width="120" height="92.5" as="geometry" />
        </mxCell>
        <mxCell id="ieXykWTIuP8R58RaBbhJ-5" style="rounded=0;orthogonalLoop=1;jettySize=auto;html=1;exitX=0.5;exitY=0.5;exitDx=0;exitDy=0;exitPerimeter=0;entryX=0;entryY=0.5;entryDx=0;entryDy=0;endArrow=none;endFill=0;" edge="1" parent="1" target="ieXykWTIuP8R58RaBbhJ-6" source="2eMa4MTnB2cK6f5te78B-4">
          <mxGeometry relative="1" as="geometry">
            <mxPoint x="429" y="505" as="sourcePoint" />
          </mxGeometry>
        </mxCell>
        <mxCell id="ieXykWTIuP8R58RaBbhJ-6" value="Решение проблем бронирования и услуг" style="ellipse;whiteSpace=wrap;html=1;" vertex="1" parent="1">
          <mxGeometry x="490" y="390" width="100" height="70" as="geometry" />
        </mxCell>
        <mxCell id="ieXykWTIuP8R58RaBbhJ-8" value="Обработка страховых случаев и документов" style="ellipse;whiteSpace=wrap;html=1;" vertex="1" parent="1">
          <mxGeometry x="540" y="575" width="110" height="80" as="geometry" />
        </mxCell>
        <mxCell id="ieXykWTIuP8R58RaBbhJ-9" style="rounded=0;orthogonalLoop=1;jettySize=auto;html=1;endArrow=none;endFill=0;exitX=0.5;exitY=0.5;exitDx=0;exitDy=0;exitPerimeter=0;" edge="1" parent="1" source="2eMa4MTnB2cK6f5te78B-27" target="ieXykWTIuP8R58RaBbhJ-8">
          <mxGeometry relative="1" as="geometry">
            <mxPoint x="439" y="570" as="sourcePoint" />
            <mxPoint x="491" y="530" as="targetPoint" />
          </mxGeometry>
        </mxCell>
      </root>
    </mxGraphModel>
  </diagram>
</mxfile>
